<?xml version="1.0" encoding="UTF-8" standalone="no"?>
<svg width="300px" height="300px" viewBox="0 0 300 300" version="1.1" xmlns="http://www.w3.org/2000/svg" xmlns:xlink="http://www.w3.org/1999/xlink" style="background: #FFFFFF;">
    <!-- Generator: Sketch 41.2 (35397) - http://www.bohemiancoding.com/sketch -->
    <title>Ring Admin Panel</title>
    <desc>Created with Sketch.</desc>
    <defs></defs>
    <g id="Page-1" stroke="none" stroke-width="1" fill="none" fill-rule="evenodd">
        <g id="Ring-Admin-Panel">
            <text id="Admin-Panel" font-family="Equip-Medium, Equip" font-size="38" font-weight="400" fill="#535556">
                <tspan x="37.748" y="272">Admin Panel</tspan>
            </text>
            <g id="ring-svg" transform="translate(75.000000, 91.000000)">
                <g id="Asset-1">
                    <g id="Layer_2">
                        <g id="Layer_1-2">
                            <g id="Group">
                                <ellipse id="Oval" fill="#1C9AD6" cx="44.0211224" cy="5.18252033" rx="5.16943878" ry="5.18252033"></ellipse>
                                <g transform="translate(0.000000, 16.991870)" id="Shape" fill="#535556">
                                    <path d="M31.9257143,7.80081301 C31.9288682,8.60441031 31.5997371,9.37339417 31.0166327,9.92479675 C30.4302629,10.5140348 29.627789,10.8352779 28.7978571,10.8130081 C28.002,10.789189 27.2448149,10.4634655 26.6792347,9.90162602 L26.5790816,9.80121951 C26.5196165,9.74085242 26.4522287,9.68888449 26.3787755,9.64674797 C26.3012446,9.60738785 26.2309153,9.55516023 26.1707653,9.49227642 C23.9872609,7.69574364 21.2369893,6.73742092 18.4127551,6.78902439 C14.7815646,6.78902439 11.9413265,8.03509485 9.89204082,10.5272358 C7.8427551,13.0193767 6.81554422,16.5567751 6.81040816,21.1394309 L6.81040816,54.0186992 C6.87335579,54.8875765 6.518345,55.7342958 5.85510204,56.2971545 C5.27623738,56.7854861 4.5468639,57.0583291 3.79040816,57.0695122 C3.03395243,57.0583291 2.30457894,56.7854861 1.72571429,56.2971545 C1.0614303,55.7350624 0.706185874,54.8877858 0.770408163,54.0186992 L0.770408163,21.1394309 C0.750019296,18.4551464 1.12382077,15.7824688 1.87979592,13.2073171 C2.56402858,10.8578591 3.69407647,8.66285079 5.20795918,6.74268293 C6.6863123,4.87473148 8.56326923,3.36250438 10.7009694,2.31707317 C13.1109532,1.19205259 15.7473568,0.639649887 18.405051,0.702845528 C20.6838405,0.74223759 22.9375688,1.18680165 25.0613776,2.01585366 C27.2493388,2.79160209 29.2440684,4.03257065 30.9087755,5.65365854 C31.5277452,6.1988072 31.8955475,6.97538134 31.9257143,7.80081301 Z"></path>
                                    <path d="M47.0411224,54.0186992 C47.1040701,54.8875765 46.7490593,55.7342958 46.0858163,56.2971545 C44.8926123,57.3121603 43.1419285,57.3121603 41.9487245,56.2971545 C41.2844405,55.7350624 40.9291961,54.8877858 40.9934184,54.0186992 L40.9934184,4.76544715 C40.9304707,3.89656988 41.2854815,3.04985049 41.9487245,2.48699187 C43.1430969,1.47518198 44.891444,1.47518198 46.0858163,2.48699187 C46.7480249,3.050611 47.1028043,3.89677865 47.0411224,4.76544715 L47.0411224,54.0186992 Z"></path>
                                    <path d="M99.475102,54.0186992 C99.5361745,54.8889017 99.1782001,55.7358591 98.5120918,56.2971545 C97.3202058,57.3077983 95.5745901,57.3077983 94.3827041,56.2971545 C93.7184201,55.7350624 93.3631757,54.8877858 93.427398,54.0186992 L93.427398,20.4365854 C93.4399441,18.6134865 93.0780474,16.8073113 92.3642347,15.1304878 C90.9777606,11.853579 88.3756272,9.24486065 85.1069898,7.85487805 C81.7195223,6.44060489 77.9090491,6.44060489 74.5215816,7.85487805 C71.2534041,9.24554427 68.6514927,11.85404 67.2643367,15.1304878 C66.5546388,16.808328 66.1954303,18.6141723 66.2088776,20.4365854 L66.2088776,54.0186992 C66.2730998,54.8877858 65.9178554,55.7350624 65.2535714,56.2971545 C64.0603674,57.3121603 62.3096836,57.3121603 61.1164796,56.2971545 C60.4521956,55.7350624 60.0969512,54.8877858 60.1611735,54.0186992 L60.1611735,20.4365854 C60.1415277,17.7959005 60.666089,15.1796038 61.7019898,12.751626 C62.6833356,10.4120344 64.1034617,8.28300952 65.8853061,6.4800813 C67.6600981,4.70808068 69.7506609,3.28552037 72.0485714,2.28617886 C76.9716134,0.188954387 82.5336927,0.188954387 87.4567347,2.28617886 C92.1756606,4.25321044 95.9259948,8.01303505 97.8880612,12.7439024 C98.9226893,15.1722765 99.4471968,17.7883045 99.4288776,20.4288618 L99.475102,54.0186992 Z"></path>
                                    <path d="M150.884439,57.5560976 C150.910981,60.2099192 150.386247,62.8402275 149.343622,65.2796748 C147.353444,69.9888789 143.59964,73.7272222 138.889184,75.6910569 C136.466808,76.7278793 133.857472,77.2536962 131.223622,77.2357724 C129.733243,77.2276712 128.24714,77.0750636 126.786071,76.7800813 C125.205419,76.4727058 123.657599,76.0149435 122.163622,75.4130081 C120.665404,74.8151665 119.245158,74.0371121 117.934082,73.095935 C116.69034,72.217586 115.615056,71.1212646 114.76,69.8597561 C114.414968,69.3534715 114.239584,68.7502496 114.259235,68.1373984 C114.23732,67.3070207 114.587907,66.5105348 115.214541,65.9670732 C115.799369,65.4119611 116.574019,65.1024224 117.379388,65.1020325 C117.810156,65.107855 118.236048,65.1942969 118.635153,65.3569106 C119.128257,65.5720573 119.53705,65.9438871 119.798469,66.4150407 C119.803129,66.4928731 119.839309,66.5654169 119.898622,66.6158537 L120.299235,67.0252033 C121.651741,68.5117509 123.374939,69.6101365 125.29148,70.2073171 C127.193339,70.8370898 129.182207,71.1628907 131.185102,71.1727642 C133.003557,71.1849013 134.805084,70.8221066 136.477806,70.1069106 C139.746443,68.716928 142.348577,66.1082096 143.735051,62.8313008 C144.458581,61.1670372 144.833551,59.371562 144.836735,57.5560976 L144.836735,50.604878 C143.051519,52.3132005 140.960422,53.6679915 138.673469,54.5979675 C136.309036,55.5772531 133.77416,56.0760601 131.215918,56.0654472 C128.568732,56.0927345 125.944925,55.5666452 123.511837,54.5207317 C118.836315,52.5288588 115.11358,48.7967032 113.126735,44.1093496 C112.082594,41.6703748 111.557795,39.0397427 111.585918,36.3857724 L111.585918,20.4365854 C111.566273,17.7959005 112.090834,15.1796038 113.126735,12.751626 C114.106894,10.4113946 115.527164,8.28215502 117.310051,6.4800813 C119.084843,4.70808068 121.175406,3.28552037 123.473316,2.28617886 C128.396358,0.188954387 133.958438,0.188954387 138.88148,2.28617886 C143.600882,4.25249644 147.351452,8.01255732 149.312806,12.7439024 C150.347434,15.1722765 150.871942,17.7883045 150.853622,20.4288618 L150.853622,57.5560976 L150.884439,57.5560976 Z M144.836735,20.4365854 C144.849281,18.6134865 144.487384,16.8073113 143.773571,15.1304878 C142.387097,11.853579 139.784964,9.24486065 136.516327,7.85487805 C133.128859,6.44060489 129.318386,6.44060489 125.930918,7.85487805 C122.653013,9.23780418 120.039644,11.843939 118.642857,15.1227642 C117.934411,16.800991 117.575255,18.6065732 117.587398,20.4288618 L117.587398,36.300813 C117.569766,38.136109 117.929036,39.9554098 118.642857,41.6455285 C119.331417,43.2698489 120.32534,44.7461506 121.570408,45.9939024 C122.813458,47.2420628 124.286547,48.2362257 125.907806,48.9211382 C129.295274,50.3354114 133.105747,50.3354114 136.493214,48.9211382 C139.761852,47.5311556 142.363985,44.9224373 143.750459,41.6455285 C144.477622,39.9585287 144.847518,38.1385551 144.836735,36.300813 L144.836735,20.4365854 Z"></path>
                                </g>
                            </g>
                        </g>
                    </g>
                </g>
            </g>
        </g>
    </g>
</svg>