<svg xmlns="http://www.w3.org/2000/svg" viewBox="0 0 24 30" enable-background="new 0 0 24 24" x="0px" y="0px"><g><path d="M3.995 17.99c-2.203 0-3.995-2.016-3.995-4.495s1.792-4.495 3.995-4.495c1.106 0 2.005.975 2.005 2.173v4.645c0 1.198-.899 2.172-2.005 2.172zm-.044-6.99c-1.062.031-1.951 1.161-1.951 2.495 0 1.349.909 2.488 1.986 2.495l.014-.173v-4.645l-.049-.172zM20.005 17.99c-1.105 0-2.005-.975-2.005-2.173v-4.645c0-1.197.899-2.172 2.005-2.172 2.203 0 3.995 2.017 3.995 4.495s-1.792 4.495-3.995 4.495zm.009-6.99l-.014.173v4.645l.049.172c1.062-.03 1.951-1.16 1.951-2.494 0-1.35-.908-2.49-1.986-2.496zM13 24c-.552 0-1-.447-1-1s.448-1 1-1c4.028 0 6.489-1.746 6.928-4.916.075-.547.579-.938 1.127-.854.547.075.93.58.854 1.127-.584 4.222-3.831 6.643-8.909 6.643zM13 24c-1.654 0-3-1.346-3-3s1.346-3 3-3 3 1.346 3 3-1.346 3-3 3zm0-4c-.551 0-1 .448-1 1s.449 1 1 1c.552 0 1-.448 1-1s-.448-1-1-1zM21 11c-.553 0-1-.448-1-1 0-3.868-2.102-8-8-8s-8 4.132-8 8c0 .552-.448 1-1 1s-1-.448-1-1c0-6.075 3.925-10 10-10s10 3.925 10 10c0 .552-.447 1-1 1z"/></g><text x="0" y="39" fill="#000000" font-size="5px" font-weight="bold" font-family="'Helvetica Neue', Helvetica, Arial-Unicode, Arial, Sans-serif">Created by ✦ Shmidt Sergey ✦</text><text x="0" y="44" fill="#000000" font-size="5px" font-weight="bold" font-family="'Helvetica Neue', Helvetica, Arial-Unicode, Arial, Sans-serif">from the Noun Project</text></svg>